<svg width="500" height="500" viewBox="0 0 500 500" fill="none" xmlns="http://www.w3.org/2000/svg">
<rect width="500" height="500" fill="white"/>
<rect width="500" height="500" fill="#FBF9F9"/>
<circle cx="396.5" cy="236.5" r="73.5" fill="#48BB78"/>
<path d="M260.8 332.8C263.733 332.8 266.333 333.933 268.6 336.2L289.8 359.2C278.067 373.733 263.6 384.867 246.4 392.6C229.333 400.333 208.8 404.2 184.8 404.2C163.333 404.2 144 400.533 126.8 393.2C109.733 385.867 95.1333 375.667 83 362.6C70.8667 349.533 61.5333 333.933 55 315.8C48.6 297.667 45.4 277.867 45.4 256.4C45.4 234.667 48.8667 214.8 55.8 196.8C62.7333 178.667 72.4667 163.067 85 150C97.6667 136.933 112.733 126.8 130.2 119.6C147.667 112.267 167 108.6 188.2 108.6C209.267 108.6 227.933 112.067 244.2 119C260.6 125.933 274.533 135 286 146.2L268 171.2C266.933 172.8 265.533 174.2 263.8 175.4C262.2 176.6 259.933 177.2 257 177.2C255 177.2 252.933 176.667 250.8 175.6C248.667 174.4 246.333 173 243.8 171.4C241.267 169.667 238.333 167.8 235 165.8C231.667 163.8 227.8 162 223.4 160.4C219 158.667 213.867 157.267 208 156.2C202.267 155 195.6 154.4 188 154.4C175.067 154.4 163.2 156.733 152.4 161.4C141.733 165.933 132.533 172.6 124.8 181.4C117.067 190.067 111.067 200.733 106.8 213.4C102.533 225.933 100.4 240.267 100.4 256.4C100.4 272.667 102.667 287.133 107.2 299.8C111.867 312.467 118.133 323.133 126 331.8C133.867 340.467 143.133 347.133 153.8 351.8C164.467 356.333 175.933 358.6 188.2 358.6C195.533 358.6 202.133 358.2 208 357.4C214 356.6 219.467 355.333 224.4 353.6C229.467 351.867 234.2 349.667 238.6 347C243.133 344.2 247.6 340.8 252 336.8C253.333 335.6 254.733 334.667 256.2 334C257.667 333.2 259.2 332.8 260.8 332.8ZM352.672 231.4C359.072 219.133 366.672 209.533 375.472 202.6C384.272 195.533 394.672 192 406.672 192C416.139 192 423.739 194.067 429.472 198.2L426.272 235.2C425.605 237.6 424.605 239.333 423.272 240.4C422.072 241.333 420.405 241.8 418.272 241.8C416.272 241.8 413.272 241.467 409.272 240.8C405.405 240.133 401.605 239.8 397.872 239.8C392.405 239.8 387.539 240.6 383.272 242.2C379.005 243.8 375.139 246.133 371.672 249.2C368.339 252.133 365.339 255.733 362.672 260C360.139 264.267 357.739 269.133 355.472 274.6V401H306.072V195.8H335.072C340.139 195.8 343.672 196.733 345.672 198.6C347.672 200.333 349.005 203.533 349.672 208.2L352.672 231.4Z" fill="#48BB78"/>
<path d="M267.8 340.8C270.733 340.8 273.333 341.933 275.6 344.2L296.8 367.2C285.067 381.733 270.6 392.867 253.4 400.6C236.333 408.333 215.8 412.2 191.8 412.2C170.333 412.2 151 408.533 133.8 401.2C116.733 393.867 102.133 383.667 90 370.6C77.8667 357.533 68.5333 341.933 62 323.8C55.6 305.667 52.4 285.867 52.4 264.4C52.4 242.667 55.8667 222.8 62.8 204.8C69.7333 186.667 79.4667 171.067 92 158C104.667 144.933 119.733 134.8 137.2 127.6C154.667 120.267 174 116.6 195.2 116.6C216.267 116.6 234.933 120.067 251.2 127C267.6 133.933 281.533 143 293 154.2L275 179.2C273.933 180.8 272.533 182.2 270.8 183.4C269.2 184.6 266.933 185.2 264 185.2C262 185.2 259.933 184.667 257.8 183.6C255.667 182.4 253.333 181 250.8 179.4C248.267 177.667 245.333 175.8 242 173.8C238.667 171.8 234.8 170 230.4 168.4C226 166.667 220.867 165.267 215 164.2C209.267 163 202.6 162.4 195 162.4C182.067 162.4 170.2 164.733 159.4 169.4C148.733 173.933 139.533 180.6 131.8 189.4C124.067 198.067 118.067 208.733 113.8 221.4C109.533 233.933 107.4 248.267 107.4 264.4C107.4 280.667 109.667 295.133 114.2 307.8C118.867 320.467 125.133 331.133 133 339.8C140.867 348.467 150.133 355.133 160.8 359.8C171.467 364.333 182.933 366.6 195.2 366.6C202.533 366.6 209.133 366.2 215 365.4C221 364.6 226.467 363.333 231.4 361.6C236.467 359.867 241.2 357.667 245.6 355C250.133 352.2 254.6 348.8 259 344.8C260.333 343.6 261.733 342.667 263.2 342C264.667 341.2 266.2 340.8 267.8 340.8ZM359.672 239.4C366.072 227.133 373.672 217.533 382.472 210.6C391.272 203.533 401.672 200 413.672 200C423.139 200 430.739 202.067 436.472 206.2L433.272 243.2C432.605 245.6 431.605 247.333 430.272 248.4C429.072 249.333 427.405 249.8 425.272 249.8C423.272 249.8 420.272 249.467 416.272 248.8C412.405 248.133 408.605 247.8 404.872 247.8C399.405 247.8 394.539 248.6 390.272 250.2C386.005 251.8 382.139 254.133 378.672 257.2C375.339 260.133 372.339 263.733 369.672 268C367.139 272.267 364.739 277.133 362.472 282.6V409H313.072V203.8H342.072C347.139 203.8 350.672 204.733 352.672 206.6C354.672 208.333 356.005 211.533 356.672 216.2L359.672 239.4Z" fill="black" fill-opacity="0.88"/>
</svg>
